<svg width="2048" height="2732" viewBox="0 0 2048 2732" fill="none" xmlns="http://www.w3.org/2000/svg">
<rect width="2048" height="2732" fill="white"/>
<path d="M687.299 1392.98H698.004V1343.67H687.299V1330.8H731.25C735.534 1330.8 739.376 1331.41 742.77 1332.63C746.165 1333.84 749.023 1335.5 751.348 1337.61C753.667 1339.72 755.455 1342.21 756.712 1345.08C757.962 1347.93 758.59 1351.04 758.59 1354.4C758.59 1357.75 757.962 1360.86 756.712 1363.72C755.455 1366.57 753.667 1369.06 751.348 1371.17C749.023 1373.28 746.165 1374.94 742.77 1376.17C739.376 1377.38 735.534 1377.98 731.25 1377.98H712.488V1392.98H723.216V1405.85H687.299V1392.98ZM731.25 1365.12C735.036 1365.12 737.949 1364.14 739.987 1362.18C742.023 1360.21 743.042 1357.61 743.042 1354.4C743.042 1351.19 742.023 1348.6 739.987 1346.64C737.949 1344.66 735.036 1343.67 731.25 1343.67H712.488V1365.12H731.25Z" fill="#3F3F46"/>
<path d="M762.865 1392.98H773.569V1343.67H762.865V1330.8H806.816C810.964 1330.8 814.658 1331.38 817.906 1332.52C821.165 1333.67 823.915 1335.24 826.167 1337.25C828.43 1339.24 830.15 1341.61 831.327 1344.37C832.504 1347.12 833.092 1350.1 833.092 1353.31C833.092 1357.33 832.266 1360.57 830.625 1363.04C828.979 1365.5 827.191 1367.41 825.261 1368.77C822.964 1370.34 820.395 1371.45 817.544 1372.09V1372.61L831.485 1392.98H841.67V1405.85H822.364L802.539 1375.83H788.054V1392.98H798.782V1405.85H762.865V1392.98ZM806.816 1362.97C810.03 1362.97 812.616 1362.05 814.579 1360.19C816.553 1358.32 817.544 1356.03 817.544 1353.31C817.544 1350.6 816.553 1348.31 814.579 1346.46C812.616 1344.6 810.03 1343.67 806.816 1343.67H788.054V1362.97H806.816Z" fill="#3F3F46"/>
<path d="M884.532 1408.52C878.602 1408.52 873.131 1407.49 868.124 1405.42C863.128 1403.36 858.765 1400.52 855.042 1396.92C851.33 1393.3 848.433 1389.04 846.351 1384.15C844.281 1379.25 843.251 1373.98 843.251 1368.34C843.251 1362.68 844.281 1357.41 846.351 1352.52C848.433 1347.62 851.33 1343.37 855.042 1339.76C858.765 1336.16 863.128 1333.32 868.124 1331.25C873.131 1329.17 878.602 1328.13 884.532 1328.13C890.399 1328.13 895.854 1329.17 900.895 1331.25C905.93 1333.32 910.31 1336.16 914.022 1339.76C917.744 1343.37 920.641 1347.62 922.712 1352.52C924.777 1357.41 925.813 1362.68 925.813 1368.34C925.813 1373.98 924.777 1379.25 922.712 1384.15C920.641 1389.04 917.744 1393.3 914.022 1396.92C910.31 1400.52 905.93 1403.36 900.895 1405.42C895.854 1407.49 890.399 1408.52 884.532 1408.52ZM884.532 1396.21C887.893 1396.21 891.129 1395.5 894.241 1394.06C897.347 1392.63 900.08 1390.65 902.434 1388.11C904.799 1385.58 906.694 1382.62 908.115 1379.22C909.546 1375.83 910.265 1372.2 910.265 1368.34C910.265 1364.48 909.546 1360.85 908.115 1357.45C906.694 1354.06 904.799 1351.1 902.434 1348.56C900.08 1346.02 897.347 1344.03 894.241 1342.61C891.129 1341.18 887.893 1340.46 884.532 1340.46C881.183 1340.46 877.946 1341.18 874.823 1342.61C871.711 1344.03 868.984 1346.02 866.63 1348.56C864.276 1351.1 862.381 1354.06 860.949 1357.45C859.512 1360.85 858.799 1364.48 858.799 1368.34C858.799 1372.2 859.512 1375.83 860.949 1379.22C862.381 1382.62 864.276 1385.58 866.63 1388.11C868.984 1390.65 871.711 1392.63 874.823 1394.06C877.946 1395.5 881.183 1396.21 884.532 1396.21Z" fill="#3F3F46"/>
<path d="M931.176 1392.98H941.881V1343.67H931.176V1330.8H968.157C973.951 1330.8 979.292 1331.8 984.181 1333.81C989.081 1335.82 993.325 1338.54 996.901 1341.98C1000.48 1345.4 1003.28 1349.39 1005.32 1353.92C1007.36 1358.45 1008.37 1363.26 1008.37 1368.34C1008.37 1373.41 1007.36 1378.21 1005.32 1382.75C1003.28 1387.29 1000.48 1391.28 996.901 1394.72C993.325 1398.15 989.081 1400.86 984.181 1402.87C979.292 1404.86 973.951 1405.85 968.157 1405.85H931.176V1392.98ZM968.157 1392.98C971.654 1392.98 974.907 1392.36 977.912 1391.12C980.911 1389.87 983.525 1388.14 985.743 1385.92C987.961 1383.7 989.692 1381.09 990.948 1378.09C992.199 1375.09 992.827 1371.84 992.827 1368.34C992.827 1364.84 992.199 1361.59 990.948 1358.58C989.692 1355.59 987.961 1352.97 985.743 1350.76C983.525 1348.54 980.911 1346.81 977.912 1345.55C974.907 1344.3 971.654 1343.67 968.157 1343.67H956.366V1392.98H968.157Z" fill="#3F3F46"/>
<path d="M1052.86 1408.52C1048.14 1408.52 1043.86 1407.79 1040.03 1406.33C1036.21 1404.87 1032.94 1402.83 1030.23 1400.22C1027.51 1397.61 1025.42 1394.51 1023.96 1390.9C1022.49 1387.29 1021.76 1383.34 1021.76 1379.04V1343.67H1011.04V1330.8H1036.23V1379.04C1036.23 1381.62 1036.63 1383.97 1037.45 1386.08C1038.27 1388.19 1039.42 1390 1040.89 1391.51C1042.35 1393 1044.1 1394.17 1046.14 1394.99C1048.18 1395.81 1050.42 1396.21 1052.86 1396.21C1055.29 1396.21 1057.52 1395.81 1059.56 1394.99C1061.6 1394.17 1063.35 1393 1064.81 1391.51C1066.27 1390 1067.41 1388.19 1068.23 1386.08C1069.05 1383.97 1069.47 1381.62 1069.47 1379.04V1343.67H1058.75V1330.8H1094.66V1343.67H1083.96V1379.04C1083.96 1383.34 1083.22 1387.29 1081.74 1390.9C1080.27 1394.51 1078.19 1397.61 1075.47 1400.22C1072.75 1402.83 1069.48 1404.87 1065.65 1406.33C1061.83 1407.79 1057.57 1408.52 1052.86 1408.52Z" fill="#3F3F46"/>
<path d="M1139.71 1408.52C1133.71 1408.52 1128.15 1407.49 1123.03 1405.42C1117.92 1403.36 1113.51 1400.52 1109.79 1396.92C1106.08 1393.3 1103.17 1389.04 1101.06 1384.15C1098.94 1379.25 1097.89 1373.98 1097.89 1368.34C1097.89 1362.68 1098.94 1357.41 1101.06 1352.52C1103.17 1347.62 1106.08 1343.37 1109.79 1339.76C1113.51 1336.16 1117.92 1333.32 1123.03 1331.25C1128.15 1329.17 1133.71 1328.13 1139.71 1328.13C1144.43 1328.13 1148.61 1328.72 1152.25 1329.89C1155.9 1331.07 1158.98 1332.38 1161.49 1333.81C1164.41 1335.45 1166.99 1337.31 1169.2 1339.37V1357.61H1156.33V1346.89C1155.12 1345.68 1153.69 1344.61 1152.05 1343.67C1150.61 1342.89 1148.88 1342.16 1146.84 1341.48C1144.81 1340.8 1142.43 1340.46 1139.71 1340.46C1136.06 1340.46 1132.64 1341.16 1129.46 1342.56C1126.29 1343.96 1123.52 1345.89 1121.16 1348.36C1118.8 1350.82 1116.92 1353.76 1115.52 1357.18C1114.13 1360.61 1113.44 1364.33 1113.44 1368.34C1113.44 1372.34 1114.13 1376.05 1115.52 1379.49C1116.92 1382.92 1118.8 1385.87 1121.16 1388.34C1123.52 1390.8 1126.29 1392.73 1129.46 1394.13C1132.64 1395.52 1136.06 1396.21 1139.71 1396.21C1143.36 1396.21 1146.63 1395.6 1149.51 1394.38C1152.41 1393.16 1154.9 1391.8 1156.98 1390.31C1159.34 1388.59 1161.44 1386.62 1163.3 1384.4L1171.88 1394.06C1169.66 1396.78 1166.98 1399.21 1163.84 1401.35C1161.12 1403.21 1157.76 1404.87 1153.75 1406.33C1149.75 1407.79 1145.07 1408.52 1139.71 1408.52Z" fill="#3F3F46"/>
<path d="M1174.02 1392.98H1183.12L1207.25 1330.8H1224.94L1249.07 1392.98H1258.19V1405.85H1224.94V1392.98H1233.52L1229.25 1381.19H1202.97L1198.67 1392.98H1207.25V1405.85H1174.02V1392.98ZM1225.49 1370.46L1216.36 1345.82H1215.85L1206.72 1370.46H1225.49Z" fill="#3F3F46"/>
<path d="M1278.02 1392.98H1288.72V1343.67H1273.72V1358.15H1260.87V1330.8H1331.09V1358.15H1318.22V1343.67H1303.21V1392.98H1313.94V1405.85H1278.02V1392.98Z" fill="#3F3F46"/>
<path d="M1337.51 1392.98H1349.3V1343.67H1337.51V1330.8H1375.58V1343.67H1363.76V1392.98H1375.58V1405.85H1337.51V1392.98Z" fill="#3F3F46"/>
<path d="M1422.19 1408.52C1416.26 1408.52 1410.79 1407.49 1405.79 1405.42C1400.79 1403.36 1396.42 1400.52 1392.7 1396.92C1388.99 1393.3 1386.09 1389.04 1384.01 1384.15C1381.94 1379.25 1380.91 1373.98 1380.91 1368.34C1380.91 1362.68 1381.94 1357.41 1384.01 1352.52C1386.09 1347.62 1388.99 1343.37 1392.7 1339.76C1396.42 1336.16 1400.79 1333.32 1405.79 1331.25C1410.79 1329.17 1416.26 1328.13 1422.19 1328.13C1428.06 1328.13 1433.51 1329.17 1438.56 1331.25C1443.59 1333.32 1447.97 1336.16 1451.68 1339.76C1455.41 1343.37 1458.3 1347.62 1460.37 1352.52C1462.44 1357.41 1463.47 1362.68 1463.47 1368.34C1463.47 1373.98 1462.44 1379.25 1460.37 1384.15C1458.3 1389.04 1455.41 1393.3 1451.68 1396.92C1447.97 1400.52 1443.59 1403.36 1438.56 1405.42C1433.51 1407.49 1428.06 1408.52 1422.19 1408.52ZM1422.19 1396.21C1425.55 1396.21 1428.79 1395.5 1431.9 1394.06C1435.01 1392.63 1437.74 1390.65 1440.09 1388.11C1442.46 1385.58 1444.36 1382.62 1445.77 1379.22C1447.21 1375.83 1447.93 1372.2 1447.93 1368.34C1447.93 1364.48 1447.21 1360.85 1445.77 1357.45C1444.36 1354.06 1442.46 1351.1 1440.09 1348.56C1437.74 1346.02 1435.01 1344.03 1431.9 1342.61C1428.79 1341.18 1425.55 1340.46 1422.19 1340.46C1418.84 1340.46 1415.61 1341.18 1412.48 1342.61C1409.37 1344.03 1406.65 1346.02 1404.29 1348.56C1401.94 1351.1 1400.04 1354.06 1398.61 1357.45C1397.17 1360.85 1396.46 1364.48 1396.46 1368.34C1396.46 1372.2 1397.17 1375.83 1398.61 1379.22C1400.04 1382.62 1401.94 1385.58 1404.29 1388.11C1406.65 1390.65 1409.37 1392.63 1412.48 1394.06C1415.61 1395.5 1418.84 1396.21 1422.19 1396.21Z" fill="#3F3F46"/>
<path d="M1468.82 1392.98H1479.53V1343.67H1468.82V1330.8H1494.01L1527.26 1381.19H1527.78V1343.67H1517.07V1330.8H1552.99V1343.67H1542.26V1405.85H1527.78L1494.56 1355.46H1494.01V1392.98H1504.74V1405.85H1468.82V1392.98Z" fill="#3F3F46"/>
<path d="M563.982 1368.86H495C495 1330.76 525.886 1299.89 563.982 1299.89V1368.86ZM563.982 1368.86V1437.82C602.08 1437.82 632.966 1406.95 632.966 1368.86H563.982ZM515.768 1384.88C507.041 1393.6 507.041 1407.76 515.768 1416.48C524.498 1425.21 538.649 1425.21 547.376 1416.48C556.106 1407.76 556.106 1393.6 547.376 1384.88C538.649 1376.15 524.498 1376.15 515.768 1384.88ZM612.73 1350.17C621.457 1341.45 621.457 1327.3 612.73 1318.57C604.003 1309.84 589.85 1309.84 581.123 1318.57C572.395 1327.3 572.395 1341.45 581.123 1350.17C589.85 1358.9 604.003 1358.9 612.73 1350.17Z" fill="#3F3F46"/>
</svg>
